<?xml version="1.0" encoding="UTF-8"?>
<svg width="81px" height="81px" viewBox="0 0 81 81" version="1.1" xmlns="http://www.w3.org/2000/svg" xmlns:xlink="http://www.w3.org/1999/xlink">
    <g stroke="none" stroke-width="1" fill="none" fill-rule="evenodd">
        <path d="M64.5,13.5 L64.5,24.3 L59.4,24.3 L59.4,13.5 L21.6,13.5 L21.6,24.3 L16.5,24.3 L16.5,13.5 C16.5,10.7 18.8,8.4 21.6,8.4 L59.4,8.4 C62.2,8.4 64.5,10.7 64.5,13.5 Z M67.5,29.4 L67.5,67.5 C67.5,70.3 65.2,72.6 62.4,72.6 L18.6,72.6 C15.8,72.6 13.5,70.3 13.5,67.5 L13.5,29.4 C13.5,26.6 15.8,24.3 18.6,24.3 L62.4,24.3 C65.2,24.3 67.5,26.6 67.5,29.4 Z M59.4,35.1 L21.6,35.1 L21.6,64.8 L59.4,64.8 L59.4,35.1 Z" fill="#999999"></path>
    </g>
</svg> 